<?xml version="1.0" encoding="UTF-8"?>
<svg width="87px" height="24px" viewBox="0 0 87 24" version="1.1" xmlns="http://www.w3.org/2000/svg" xmlns:xlink="http://www.w3.org/1999/xlink">
    <!-- Generator: Sketch 52.5 (67469) - http://www.bohemiancoding.com/sketch -->
    <title>Group 4 Copy</title>
    <desc>Created with Sketch.</desc>
    <g id="Page-1" stroke="none" stroke-width="1" fill="none" fill-rule="evenodd">
        <g id="Spaceflower_Concept_02-Copy" transform="translate(-332.000000, -1076.000000)" fill="#1E201D">
            <g id="Group-4-Copy" transform="translate(375.500000, 1088.000000) rotate(-90.000000) translate(-375.500000, -1088.000000) translate(363.500000, 1044.500000)">
                <path d="M23.6518805,74.9997439 C24.1160398,74.513895 24.1160398,73.7576479 23.6518805,73.2775828 C23.1718155,72.8090856 22.3982166,72.8090856 21.9297194,73.2775828 L13.2032354,82.0040668 L13.2032354,1.20305463 C13.2032354,0.530674338 12.672561,-2.72848411e-12 12.0001807,-2.72848411e-12 C11.3278005,-2.72848411e-12 10.7797744,0.530674338 10.7797744,1.20305463 L10.7797744,82.0040668 L2.07064211,73.2775828 C1.58479312,72.8090856 0.827100059,72.8090856 0.34703499,73.2775828 C-0.11567833,73.7576479 -0.11567833,74.513895 0.34703499,74.9997439 L11.1412691,85.7881942 C11.6039825,86.2566914 12.3775813,86.2566914 12.8634303,85.7881942 L23.6518805,74.9997439 Z" id="Fill-1"></path>
            </g>
        </g>
    </g>
</svg>