<?xml version="1.0" encoding="UTF-8"?>
<svg width="115px" height="24px" viewBox="0 0 115 24" version="1.1" xmlns="http://www.w3.org/2000/svg" xmlns:xlink="http://www.w3.org/1999/xlink">
    <!-- Generator: Sketch 52.5 (67469) - http://www.bohemiancoding.com/sketch -->
    <title>Fill 1</title>
    <desc>Created with Sketch.</desc>
    <g id="Page-1" stroke="none" stroke-width="1" fill="none" fill-rule="evenodd">
        <g id="Spaceflower_Concept_02" transform="translate(-553.000000, -1747.000000)" fill="#1E191D">
            <g id="Group-4-Copy-2" transform="translate(610.500000, 1759.000000) rotate(-90.000000) translate(-610.500000, -1759.000000) translate(598.500000, 1701.500000)">
                <path d="M23.6518805,102.999744 C24.1160398,102.513895 24.1160398,101.757648 23.6518805,101.277583 C23.1718155,100.809086 22.3982166,100.809086 21.9297194,101.277583 L13.2032354,110.004067 L13.2032354,1.20305463 C13.2032354,0.530674338 12.672561,9.09494702e-13 12.0001807,9.09494702e-13 C11.3278005,9.09494702e-13 10.7797744,0.530674338 10.7797744,1.20305463 L10.7797744,110.004067 L2.07064211,101.277583 C1.58479312,100.809086 0.827100059,100.809086 0.34703499,101.277583 C-0.11567833,101.757648 -0.11567833,102.513895 0.34703499,102.999744 L11.1412691,113.788194 C11.6039825,114.256691 12.3775813,114.256691 12.8634303,113.788194 L23.6518805,102.999744 Z" id="Fill-1"></path>
            </g>
        </g>
    </g>
</svg>