<?xml version="1.0" encoding="UTF-8"?>
<svg width="35px" height="24px" viewBox="0 0 35 24" version="1.1" xmlns="http://www.w3.org/2000/svg" xmlns:xlink="http://www.w3.org/1999/xlink">
    <!-- Generator: Sketch 52.5 (67469) - http://www.bohemiancoding.com/sketch -->
    <title>Fill 1</title>
    <desc>Created with Sketch.</desc>
    <g id="Page-1" stroke="none" stroke-width="1" fill="none" fill-rule="evenodd">
        <g id="Spaceflower_Concept_02" transform="translate(-1233.000000, -1794.000000)" fill="#FFFFFF">
            <g id="Group-6" transform="translate(740.000000, 1658.000000)">
                <g id="Group-4" transform="translate(510.500000, 148.000000) rotate(-90.000000) translate(-510.500000, -148.000000) translate(498.500000, 130.500000)">
                    <path d="M23.6518805,22.9997439 C24.1160398,22.513895 24.1160398,21.7576479 23.6518805,21.2775828 C23.1718155,20.8090856 22.3982166,20.8090856 21.9297194,21.2775828 L13.2032354,30.0040668 L13.2032354,1.20305463 C13.2032354,0.530674338 12.672561,0 12.0001807,0 C11.3278005,0 10.7797744,0.530674338 10.7797744,1.20305463 L10.7797744,30.0040668 L2.07064211,21.2775828 C1.58479312,20.8090856 0.827100059,20.8090856 0.34703499,21.2775828 C-0.11567833,21.7576479 -0.11567833,22.513895 0.34703499,22.9997439 L11.1412691,33.7881942 C11.6039825,34.2566914 12.3775813,34.2566914 12.8634303,33.7881942 L23.6518805,22.9997439 Z" id="Fill-1"></path>
                </g>
            </g>
        </g>
    </g>
</svg>